<?xml version="1.0" standalone="yes"?>

<svg version="1.1" viewBox="0.0 0.0 100.0 158.4461942257218" fill="none" stroke="none" stroke-linecap="square" stroke-miterlimit="10" xmlns="http://www.w3.org/2000/svg" xmlns:xlink="http://www.w3.org/1999/xlink"><clipPath id="p.0"><path d="m0 0l100.0 0l0 158.4462l-100.0 0l0 -158.4462z" clip-rule="nonzero"></path></clipPath><g clip-path="url(#p.0)"><path fill="#000000" fill-opacity="0.0" d="m0 0l100.0 0l0 158.4462l-100.0 0z" fill-rule="nonzero"></path><path fill="#f44336" d="m7.071765 67.68688l0 0c0 -23.709106 19.220028 -42.929134 42.929134 -42.929134l0 0c11.385513 0 22.304703 4.5228786 30.355484 12.573654c8.050774 8.050774 12.573647 18.969967 12.573647 30.35548l0 0c0 23.709106 -19.220024 42.92913 -42.92913 42.92913l0 0c-23.709106 0 -42.929134 -19.220024 -42.929134 -42.92913zm21.464565 0l0 0c0 11.854553 9.610016 21.46457 21.46457 21.46457c11.854553 0 21.46457 -9.610016 21.46457 -21.46457c0 -11.854553 -9.610016 -21.46457 -21.46457 -21.46457l0 0c-11.854553 0 -21.46457 9.610016 -21.46457 21.46457z" fill-rule="nonzero"></path><path stroke="#f44336" stroke-width="1.0" stroke-linejoin="round" stroke-linecap="butt" d="m7.071765 67.68688l0 0c0 -23.709106 19.220028 -42.929134 42.929134 -42.929134l0 0c11.385513 0 22.304703 4.5228786 30.355484 12.573654c8.050774 8.050774 12.573647 18.969967 12.573647 30.35548l0 0c0 23.709106 -19.220024 42.92913 -42.92913 42.92913l0 0c-23.709106 0 -42.929134 -19.220024 -42.929134 -42.92913zm21.464565 0l0 0c0 11.854553 9.610016 21.46457 21.46457 21.46457c11.854553 0 21.46457 -9.610016 21.46457 -21.46457c0 -11.854553 -9.610016 -21.46457 -21.46457 -21.46457l0 0c-11.854553 0 -21.46457 9.610016 -21.46457 21.46457z" fill-rule="nonzero"></path><path fill="#4caf50" d="m33.887077 8.317572l16.125984 10.424587l16.125984 -10.424587l-10.424591 16.125984l10.424591 16.125986l-16.125984 -10.424589l-16.125984 10.424589l10.424587 -16.125986z" fill-rule="nonzero"></path><path stroke="#4caf50" stroke-width="1.0" stroke-linejoin="round" stroke-linecap="butt" d="m33.887077 8.317572l16.125984 10.424587l16.125984 -10.424587l-10.424591 16.125984l10.424591 16.125986l-16.125984 -10.424589l-16.125984 10.424589l10.424587 -16.125986z" fill-rule="nonzero"></path><path fill="#f44336" d="m84.92665 92.62198l-34.913383 60.44095l-34.913387 -60.44095z" fill-rule="nonzero"></path><path stroke="#f44336" stroke-width="1.0" stroke-linejoin="round" stroke-linecap="butt" d="m84.92665 92.62198l-34.913383 60.44095l-34.913387 -60.44095z" fill-rule="nonzero"></path></g></svg>

